<mxfile host="app.diagrams.net" agent="Mozilla/5.0 (Windows NT 10.0; Win64; x64) AppleWebKit/537.36 (KHTML, like Gecko) Chrome/130.0.0.0 Safari/537.36" version="24.8.4">
  <diagram name="Page-1" id="wQsb2WF-SvANS3l9DEJP">
    <mxGraphModel grid="0" page="0" gridSize="10" guides="1" tooltips="1" connect="1" arrows="1" fold="1" pageScale="1" pageWidth="827" pageHeight="1169" math="0" shadow="0">
      <root>
        <mxCell id="0" />
        <mxCell id="1" parent="0" />
        <mxCell id="FZm5RDKqz523cWnkw5jz-1" style="edgeStyle=none;curved=1;rounded=0;orthogonalLoop=1;jettySize=auto;html=1;fontSize=12;startSize=8;endSize=8;entryX=0;entryY=0.5;entryDx=0;entryDy=0;" edge="1" parent="1" source="FZm5RDKqz523cWnkw5jz-3" target="FZm5RDKqz523cWnkw5jz-24">
          <mxGeometry relative="1" as="geometry">
            <mxPoint x="384.57148960658515" y="621.2856532505582" as="targetPoint" />
          </mxGeometry>
        </mxCell>
        <mxCell id="FZm5RDKqz523cWnkw5jz-2" style="edgeStyle=none;curved=1;rounded=0;orthogonalLoop=1;jettySize=auto;html=1;fontSize=12;startSize=8;endSize=8;" edge="1" parent="1" source="FZm5RDKqz523cWnkw5jz-3" target="FZm5RDKqz523cWnkw5jz-27">
          <mxGeometry relative="1" as="geometry" />
        </mxCell>
        <mxCell id="FZm5RDKqz523cWnkw5jz-3" value="Hiệu trưởng&amp;nbsp;" style="shape=umlActor;verticalLabelPosition=bottom;verticalAlign=top;html=1;fontSize=18;" vertex="1" parent="1">
          <mxGeometry x="107" y="884" width="30" height="60" as="geometry" />
        </mxCell>
        <mxCell id="FZm5RDKqz523cWnkw5jz-4" value="" style="endArrow=classic;html=1;rounded=0;fontSize=18;startSize=8;endSize=8;curved=1;" edge="1" parent="1">
          <mxGeometry width="50" height="50" relative="1" as="geometry">
            <mxPoint x="137" y="904" as="sourcePoint" />
            <mxPoint x="399" y="770" as="targetPoint" />
          </mxGeometry>
        </mxCell>
        <mxCell id="FZm5RDKqz523cWnkw5jz-5" value="" style="endArrow=classic;html=1;rounded=0;fontSize=18;startSize=8;endSize=8;curved=1;" edge="1" parent="1">
          <mxGeometry width="50" height="50" relative="1" as="geometry">
            <mxPoint x="128" y="929" as="sourcePoint" />
            <mxPoint x="402" y="941" as="targetPoint" />
          </mxGeometry>
        </mxCell>
        <mxCell id="FZm5RDKqz523cWnkw5jz-6" value="" style="endArrow=classic;html=1;rounded=0;fontSize=18;startSize=8;endSize=8;curved=1;" edge="1" parent="1">
          <mxGeometry width="50" height="50" relative="1" as="geometry">
            <mxPoint x="135" y="944" as="sourcePoint" />
            <mxPoint x="383" y="1147" as="targetPoint" />
          </mxGeometry>
        </mxCell>
        <mxCell id="FZm5RDKqz523cWnkw5jz-7" value="Quản lý sinh viên" style="ellipse;whiteSpace=wrap;html=1;fontSize=18;" vertex="1" parent="1">
          <mxGeometry x="397" y="734" width="138" height="72" as="geometry" />
        </mxCell>
        <mxCell id="FZm5RDKqz523cWnkw5jz-8" value="Quản lý giáo viên" style="ellipse;whiteSpace=wrap;html=1;fontSize=18;" vertex="1" parent="1">
          <mxGeometry x="404" y="905" width="140" height="70" as="geometry" />
        </mxCell>
        <mxCell id="FZm5RDKqz523cWnkw5jz-9" value="Quản lý kế toán" style="ellipse;whiteSpace=wrap;html=1;fontSize=18;" vertex="1" parent="1">
          <mxGeometry x="383" y="1111" width="140" height="70" as="geometry" />
        </mxCell>
        <mxCell id="FZm5RDKqz523cWnkw5jz-10" value="Thêm,sửa,xóa" style="ellipse;whiteSpace=wrap;html=1;fontSize=18;" vertex="1" parent="1">
          <mxGeometry x="741" y="691" width="140" height="70" as="geometry" />
        </mxCell>
        <mxCell id="FZm5RDKqz523cWnkw5jz-11" value="&amp;lt;&amp;lt;extend&amp;gt;&amp;gt;" style="html=1;verticalAlign=bottom;endArrow=open;dashed=1;endSize=8;curved=0;rounded=0;fontSize=18;entryX=1;entryY=0.5;entryDx=0;entryDy=0;" edge="1" parent="1" target="FZm5RDKqz523cWnkw5jz-7">
          <mxGeometry relative="1" as="geometry">
            <mxPoint x="734" y="725" as="sourcePoint" />
            <mxPoint x="617" y="767" as="targetPoint" />
          </mxGeometry>
        </mxCell>
        <mxCell id="FZm5RDKqz523cWnkw5jz-12" value="&amp;lt;&amp;lt;extend&amp;gt;&amp;gt;" style="html=1;verticalAlign=bottom;endArrow=open;dashed=1;endSize=8;curved=0;rounded=0;fontSize=18;entryX=1;entryY=0.5;entryDx=0;entryDy=0;" edge="1" parent="1">
          <mxGeometry relative="1" as="geometry">
            <mxPoint x="753" y="940" as="sourcePoint" />
            <mxPoint x="542" y="944" as="targetPoint" />
          </mxGeometry>
        </mxCell>
        <mxCell id="FZm5RDKqz523cWnkw5jz-13" value="Thêm,sửa,xóa" style="ellipse;whiteSpace=wrap;html=1;fontSize=18;" vertex="1" parent="1">
          <mxGeometry x="751" y="910" width="140" height="70" as="geometry" />
        </mxCell>
        <mxCell id="FZm5RDKqz523cWnkw5jz-14" value="&amp;lt;&amp;lt;extend&amp;gt;&amp;gt;" style="html=1;verticalAlign=bottom;endArrow=open;dashed=1;endSize=8;curved=0;rounded=0;fontSize=18;entryX=1;entryY=0.5;entryDx=0;entryDy=0;" edge="1" parent="1">
          <mxGeometry relative="1" as="geometry">
            <mxPoint x="734" y="1142" as="sourcePoint" />
            <mxPoint x="523" y="1146" as="targetPoint" />
          </mxGeometry>
        </mxCell>
        <mxCell id="FZm5RDKqz523cWnkw5jz-15" value="Thêm,sửa,xóa" style="ellipse;whiteSpace=wrap;html=1;fontSize=18;" vertex="1" parent="1">
          <mxGeometry x="732" y="1111" width="140" height="70" as="geometry" />
        </mxCell>
        <mxCell id="FZm5RDKqz523cWnkw5jz-16" value="" style="endArrow=classic;html=1;rounded=0;fontSize=18;startSize=8;endSize=8;curved=1;" edge="1" parent="1">
          <mxGeometry width="50" height="50" relative="1" as="geometry">
            <mxPoint x="107" y="944" as="sourcePoint" />
            <mxPoint x="379" y="1333" as="targetPoint" />
          </mxGeometry>
        </mxCell>
        <mxCell id="FZm5RDKqz523cWnkw5jz-17" value="Tìm kiếm" style="ellipse;whiteSpace=wrap;html=1;fontSize=18;" vertex="1" parent="1">
          <mxGeometry x="375" y="1299" width="140" height="70" as="geometry" />
        </mxCell>
        <mxCell id="FZm5RDKqz523cWnkw5jz-18" value="TÌm kiếm sinh viên" style="ellipse;whiteSpace=wrap;html=1;fontSize=18;" vertex="1" parent="1">
          <mxGeometry x="139" y="1451" width="140" height="70" as="geometry" />
        </mxCell>
        <mxCell id="FZm5RDKqz523cWnkw5jz-19" value="TÌm kiếm giáo viên" style="ellipse;whiteSpace=wrap;html=1;fontSize=18;" vertex="1" parent="1">
          <mxGeometry x="357" y="1469" width="140" height="70" as="geometry" />
        </mxCell>
        <mxCell id="FZm5RDKqz523cWnkw5jz-20" value="TÌm kiếm kế toán" style="ellipse;whiteSpace=wrap;html=1;fontSize=18;" vertex="1" parent="1">
          <mxGeometry x="582" y="1421" width="172" height="75" as="geometry" />
        </mxCell>
        <mxCell id="FZm5RDKqz523cWnkw5jz-21" value="&amp;lt;&amp;lt;extend&amp;gt;&amp;gt;" style="html=1;verticalAlign=bottom;endArrow=open;dashed=1;endSize=8;curved=0;rounded=0;fontSize=18;entryX=1;entryY=0.5;entryDx=0;entryDy=0;exitX=0.4;exitY=0;exitDx=0;exitDy=0;exitPerimeter=0;" edge="1" parent="1" source="FZm5RDKqz523cWnkw5jz-20">
          <mxGeometry relative="1" as="geometry">
            <mxPoint x="716" y="1344" as="sourcePoint" />
            <mxPoint x="505" y="1348" as="targetPoint" />
          </mxGeometry>
        </mxCell>
        <mxCell id="FZm5RDKqz523cWnkw5jz-22" value="&amp;lt;&amp;lt;extend&amp;gt;&amp;gt;" style="html=1;verticalAlign=bottom;endArrow=open;dashed=1;endSize=8;curved=0;rounded=0;fontSize=18;entryX=1;entryY=0.5;entryDx=0;entryDy=0;exitX=0.5;exitY=0;exitDx=0;exitDy=0;" edge="1" parent="1" source="FZm5RDKqz523cWnkw5jz-19">
          <mxGeometry relative="1" as="geometry">
            <mxPoint x="566" y="1447" as="sourcePoint" />
            <mxPoint x="433" y="1369" as="targetPoint" />
          </mxGeometry>
        </mxCell>
        <mxCell id="FZm5RDKqz523cWnkw5jz-23" value="&amp;lt;&amp;lt;extend&amp;gt;&amp;gt;" style="html=1;verticalAlign=bottom;endArrow=open;dashed=1;endSize=8;curved=0;rounded=0;fontSize=18;entryX=0.066;entryY=0.81;entryDx=0;entryDy=0;exitX=0.5;exitY=0;exitDx=0;exitDy=0;entryPerimeter=0;" edge="1" parent="1" target="FZm5RDKqz523cWnkw5jz-17">
          <mxGeometry relative="1" as="geometry">
            <mxPoint x="235" y="1451" as="sourcePoint" />
            <mxPoint x="241" y="1351" as="targetPoint" />
          </mxGeometry>
        </mxCell>
        <mxCell id="FZm5RDKqz523cWnkw5jz-24" value="Quản lý lịch học" style="ellipse;whiteSpace=wrap;html=1;" vertex="1" parent="1">
          <mxGeometry x="414" y="576" width="140" height="70" as="geometry" />
        </mxCell>
        <mxCell id="FZm5RDKqz523cWnkw5jz-25" value="Thêm,sửa,xóa" style="ellipse;whiteSpace=wrap;html=1;fontSize=18;" vertex="1" parent="1">
          <mxGeometry x="706" y="453" width="140" height="70" as="geometry" />
        </mxCell>
        <mxCell id="FZm5RDKqz523cWnkw5jz-26" value="&amp;lt;&amp;lt;extend&amp;gt;&amp;gt;" style="html=1;verticalAlign=bottom;endArrow=open;dashed=1;endSize=8;curved=0;rounded=0;fontSize=18;entryX=1;entryY=0.5;entryDx=0;entryDy=0;exitX=0.039;exitY=0.755;exitDx=0;exitDy=0;exitPerimeter=0;" edge="1" parent="1" source="FZm5RDKqz523cWnkw5jz-25">
          <mxGeometry relative="1" as="geometry">
            <mxPoint x="738" y="548" as="sourcePoint" />
            <mxPoint x="539" y="593" as="targetPoint" />
          </mxGeometry>
        </mxCell>
        <mxCell id="FZm5RDKqz523cWnkw5jz-27" value="Quản lý môn học" style="ellipse;whiteSpace=wrap;html=1;" vertex="1" parent="1">
          <mxGeometry x="-122" y="1318" width="140" height="70" as="geometry" />
        </mxCell>
        <mxCell id="FZm5RDKqz523cWnkw5jz-28" value="Thêm,sửa,xóa" style="ellipse;whiteSpace=wrap;html=1;fontSize=18;" vertex="1" parent="1">
          <mxGeometry x="-337" y="1519" width="140" height="70" as="geometry" />
        </mxCell>
        <mxCell id="FZm5RDKqz523cWnkw5jz-29" value="&amp;lt;&amp;lt;extend&amp;gt;&amp;gt;" style="html=1;verticalAlign=bottom;endArrow=open;dashed=1;endSize=8;curved=0;rounded=0;fontSize=18;exitX=1;exitY=0;exitDx=0;exitDy=0;" edge="1" parent="1" source="FZm5RDKqz523cWnkw5jz-28" target="FZm5RDKqz523cWnkw5jz-27">
          <mxGeometry relative="1" as="geometry">
            <mxPoint x="-24" y="1507" as="sourcePoint" />
            <mxPoint x="-235" y="1511" as="targetPoint" />
          </mxGeometry>
        </mxCell>
      </root>
    </mxGraphModel>
  </diagram>
</mxfile>
